<svg width="50" height="67" viewBox="0 0 50 67" fill="none" xmlns="http://www.w3.org/2000/svg">
<path d="M15.625 9.37501C15.625 4.19727 19.8223 0 25 0C30.1777 0 34.375 4.19727 34.375 9.37501C34.375 14.5526 30.1777 18.75 25 18.75C19.8223 18.75 15.625 14.5526 15.625 9.37501ZM48.7796 9.55379C47.1525 7.92657 44.5142 7.92657 42.8871 9.55379L31.6074 20.8334H18.3924L7.11287 9.55379C5.48578 7.92657 2.8475 7.92657 1.22041 9.55379C-0.406804 11.181 -0.406804 13.8192 1.22041 15.4464L13.5417 27.7675V62.5001C13.5417 64.8013 15.4071 66.6668 17.7083 66.6668H19.7917C22.0928 66.6668 23.9583 64.8013 23.9583 62.5001V47.9167H26.0417V62.5001C26.0417 64.8013 27.9072 66.6668 30.2083 66.6668H32.2917C34.5928 66.6668 36.4583 64.8013 36.4583 62.5001V27.7675L48.7796 15.4462C50.4068 13.819 50.4068 11.181 48.7796 9.55379Z" fill="black"/>
</svg>
