<svg width="50" height="66" viewBox="0 0 50 66" fill="none" xmlns="http://www.w3.org/2000/svg">
<path d="M25.2788 26.2571C17.8643 26.1423 12.2005 20.1819 12.1503 13.1285C12.2728 5.78022 18.2789 0.0515295 25.2788 0C32.6998 0.280622 38.3546 5.9609 38.4073 13.1285C38.2614 20.4826 32.2858 26.2073 25.2788 26.2571ZM35.8933 28.9806C45.2251 29.0895 49.957 37.2751 50 45.4606V65.6426H40.8518L40.8519 47.9052C40.6291 46.679 39.7986 46.2632 39.0377 46.3834C38.3254 46.4961 37.6741 47.0782 37.6395 47.9052V65.6426H12.2211V47.9052C12.0265 46.7382 11.2841 46.2895 10.5619 46.3348C9.78852 46.3834 9.03828 46.9986 9.00874 47.9052V65.6426H0.000387087V45.4606C-0.0532211 36.737 5.46519 29.0452 14.1757 28.9806H35.8933Z" fill="black"/>
</svg>
