<svg width="50" height="45" viewBox="0 0 50 45" fill="none" xmlns="http://www.w3.org/2000/svg">
<path d="M46.93 15.3875L43.51 5.1275C42.4875 2.06 39.63 0 36.3975 0H13.6025C10.37 0 7.5125 2.06 6.49 5.1275L3.07 15.3875C1.2675 16.1425 0 17.9225 0 20V32.5C0 34.345 1.01 35.94 2.5 36.8075V39.7425V42.5C2.5 43.8825 3.6175 45 5 45H7.5C8.8825 45 10 43.8825 10 42.5V37.5H40V42.5C40 43.8825 41.1175 45 42.5 45H45C46.3825 45 47.5 43.8825 47.5 42.5V36.8075C48.99 35.94 50 34.3475 50 32.5V20C50 17.9225 48.7325 16.1425 46.93 15.3875ZM13.6025 5H36.395C37.4725 5 38.4275 5.685 38.7675 6.71L41.5325 15H39.5475H10.4525H8.4675L11.23 6.71C11.5725 5.685 12.5275 5 13.6025 5ZM8.75 30C6.68 30 5 28.32 5 26.25C5 24.18 6.68 22.5 8.75 22.5C10.82 22.5 12.5 24.18 12.5 26.25C12.5 28.32 10.82 30 8.75 30ZM41.25 30C39.18 30 37.5 28.32 37.5 26.25C37.5 24.18 39.18 22.5 41.25 22.5C43.32 22.5 45 24.18 45 26.25C45 28.32 43.32 30 41.25 30Z" fill="black"/>
</svg>
