<svg width="44" height="30" viewBox="0 0 44 30" fill="none" xmlns="http://www.w3.org/2000/svg">
<path d="M42.9 24.9071H41.8C40.0098 24.9071 38.6512 24.3643 37.9438 23.7531C37.3319 23.2238 36.5922 22.8441 35.7596 22.8441H34.639C33.8064 22.8441 33.0667 23.2238 32.4548 23.7531C31.7488 24.3643 30.3903 24.9071 28.6 24.9071C26.8097 24.9071 25.4513 24.3643 24.7438 23.7531C24.1319 23.2238 23.3922 22.8441 22.5596 22.8441H21.439C20.6064 22.8441 19.8667 23.2238 19.2548 23.7531C18.5487 24.3643 17.1903 24.9071 15.4 24.9071C13.6097 24.9071 12.2513 24.3643 11.5438 23.7531C10.9319 23.2238 10.1922 22.8441 9.35962 22.8441H8.239C7.40644 22.8441 6.66669 23.2238 6.05481 23.7531C5.34875 24.3643 3.99025 24.9071 2.2 24.9071H1.1C0.49225 24.9071 0 25.3687 0 25.9386V28.0016C0 28.5715 0.49225 29.0331 1.1 29.0331H2.2C4.85512 29.0331 7.1995 28.2473 8.8 26.9804C10.4005 28.2479 12.7449 29.0331 15.4 29.0331C18.0551 29.0331 20.3995 28.2473 22 26.9804C23.6005 28.2479 25.9449 29.0331 28.6 29.0331C31.2551 29.0331 33.5995 28.2473 35.2 26.9804C36.8005 28.2479 39.1449 29.0331 41.8 29.0331H42.9C43.5078 29.0331 44 28.5715 44 28.0016V25.9386C44 25.3687 43.5078 24.9071 42.9 24.9071ZM15.4 22.8441V16.655H28.6V22.8441C29.9145 22.8441 30.7216 22.447 30.9643 22.2368C31.5948 21.6914 32.2843 21.3123 33 21.0718V6.33994C33 5.2027 33.9873 4.27692 35.2 4.27692C36.4128 4.27692 37.4 5.2027 37.4 6.33994V7.37145C37.4 7.94135 37.8923 8.40296 38.5 8.40296H40.7C41.3078 8.40296 41.8 7.94135 41.8 7.37145V6.33994C41.8 2.92693 38.8396 0.150879 35.2 0.150879C31.5604 0.150879 28.6 2.92693 28.6 6.33994V12.529H15.4V6.33994C15.4 5.2027 16.3873 4.27692 17.6 4.27692C18.8127 4.27692 19.8 5.2027 19.8 6.33994V7.37145C19.8 7.94135 20.2922 8.40296 20.9 8.40296H23.1C23.7078 8.40296 24.2 7.94135 24.2 7.37145V6.33994C24.2 2.92693 21.2396 0.150879 17.6 0.150879C13.9604 0.150879 11 2.92693 11 6.33994V21.0712C11.7157 21.3117 12.4053 21.6914 13.0357 22.2361C13.2784 22.447 14.0855 22.8441 15.4 22.8441Z" fill="black"/>
</svg>
